<svg width="141" height="18" viewBox="0 0 141 18" fill="none" xmlns="http://www.w3.org/2000/svg">
<path d="M17 14H20L10 5L0 14H3L10 7.69L17 14ZM5 6.81V5H2V9.5L5 6.81Z" fill="white"/>
<path d="M37.78 3.5C39.09 3.5 40.1 3.79 40.81 4.37C41.53 4.94 41.89 5.74 41.89 6.77C41.89 7.65 41.68 8.42 41.26 9.08C40.85 9.73 40.26 10.23 39.49 10.58C38.73 10.93 37.83 11.105 36.79 11.105H34.45L33.88 14H31.435L33.535 3.5H37.78ZM36.895 9.125C37.705 9.125 38.33 8.94 38.77 8.57C39.21 8.2 39.43 7.67 39.43 6.98C39.43 6.48 39.26 6.105 38.92 5.855C38.59 5.605 38.11 5.48 37.48 5.48H35.575L34.84 9.125H36.895ZM45.7548 6.89C46.1048 6.51 46.5248 6.235 47.0148 6.065C47.5148 5.895 48.0998 5.81 48.7698 5.81L48.3498 7.97C48.0698 7.95 47.8898 7.94 47.8098 7.94C47.0998 7.94 46.5298 8.115 46.0998 8.465C45.6798 8.815 45.3948 9.36 45.2448 10.1L44.4648 14H42.1248L43.7298 5.93H45.9498L45.7548 6.89ZM52.668 14.12C51.858 14.12 51.143 13.97 50.523 13.67C49.913 13.37 49.438 12.95 49.098 12.41C48.768 11.86 48.603 11.225 48.603 10.505C48.603 9.615 48.813 8.815 49.233 8.105C49.653 7.395 50.233 6.835 50.973 6.425C51.713 6.015 52.548 5.81 53.478 5.81C54.298 5.81 55.013 5.96 55.623 6.26C56.233 6.56 56.703 6.985 57.033 7.535C57.373 8.075 57.543 8.705 57.543 9.425C57.543 10.315 57.333 11.115 56.913 11.825C56.503 12.535 55.923 13.095 55.173 13.505C54.433 13.915 53.598 14.12 52.668 14.12ZM52.818 12.185C53.268 12.185 53.673 12.075 54.033 11.855C54.393 11.625 54.673 11.31 54.873 10.91C55.073 10.51 55.173 10.05 55.173 9.53C55.173 8.98 55.013 8.545 54.693 8.225C54.373 7.905 53.923 7.745 53.343 7.745C52.883 7.745 52.473 7.86 52.113 8.09C51.753 8.31 51.473 8.62 51.273 9.02C51.073 9.42 50.973 9.88 50.973 10.4C50.973 10.95 51.133 11.385 51.453 11.705C51.783 12.025 52.238 12.185 52.818 12.185ZM64.4024 5.81C65.0324 5.81 65.6124 5.955 66.1424 6.245C66.6824 6.535 67.1074 6.955 67.4174 7.505C67.7374 8.045 67.8974 8.685 67.8974 9.425C67.8974 10.315 67.6974 11.12 67.2974 11.84C66.9074 12.55 66.3724 13.11 65.6924 13.52C65.0124 13.92 64.2574 14.12 63.4274 14.12C62.1974 14.12 61.3274 13.72 60.8174 12.92L60.0224 16.91H57.6824L59.8724 5.93H62.0924L61.9274 6.725C62.5974 6.115 63.4224 5.81 64.4024 5.81ZM63.1574 12.185C63.6174 12.185 64.0274 12.075 64.3874 11.855C64.7474 11.625 65.0274 11.31 65.2274 10.91C65.4274 10.51 65.5274 10.05 65.5274 9.53C65.5274 8.98 65.3624 8.545 65.0324 8.225C64.7124 7.905 64.2624 7.745 63.6824 7.745C63.2324 7.745 62.8274 7.86 62.4674 8.09C62.1074 8.31 61.8274 8.62 61.6274 9.02C61.4274 9.42 61.3274 9.88 61.3274 10.4C61.3274 10.95 61.4874 11.385 61.8074 11.705C62.1274 12.025 62.5774 12.185 63.1574 12.185ZM77.3839 9.365C77.3839 9.735 77.3389 10.145 77.2489 10.595H71.0689C71.1489 11.695 71.8439 12.245 73.1539 12.245C73.5639 12.245 73.9539 12.18 74.3239 12.05C74.7039 11.92 75.0339 11.735 75.3139 11.495L76.2889 13.04C75.8389 13.4 75.3239 13.67 74.7439 13.85C74.1639 14.03 73.5539 14.12 72.9139 14.12C72.0839 14.12 71.3539 13.975 70.7239 13.685C70.1039 13.385 69.6239 12.96 69.2839 12.41C68.9539 11.86 68.7889 11.225 68.7889 10.505C68.7889 9.615 68.9889 8.815 69.3889 8.105C69.7989 7.385 70.3639 6.825 71.0839 6.425C71.8039 6.015 72.6239 5.81 73.5439 5.81C74.3239 5.81 74.9989 5.955 75.5689 6.245C76.1489 6.535 76.5939 6.95 76.9039 7.49C77.2239 8.03 77.3839 8.655 77.3839 9.365ZM73.4389 7.565C72.8889 7.565 72.4239 7.715 72.0439 8.015C71.6639 8.305 71.3939 8.71 71.2339 9.23H75.2389C75.2389 8.71 75.0739 8.305 74.7439 8.015C74.4239 7.715 73.9889 7.565 73.4389 7.565ZM81.6728 6.89C82.0228 6.51 82.4428 6.235 82.9328 6.065C83.4328 5.895 84.0178 5.81 84.6878 5.81L84.2678 7.97C83.9878 7.95 83.8078 7.94 83.7278 7.94C83.0178 7.94 82.4478 8.115 82.0178 8.465C81.5978 8.815 81.3128 9.36 81.1628 10.1L80.3828 14H78.0428L79.6478 5.93H81.8678L81.6728 6.89ZM87.9025 11.15C87.8825 11.23 87.8725 11.34 87.8725 11.48C87.8725 12 88.1575 12.26 88.7275 12.26C89.0375 12.26 89.3525 12.165 89.6725 11.975L90.0175 13.64C89.4975 13.96 88.8275 14.12 88.0075 14.12C87.2475 14.12 86.6375 13.92 86.1775 13.52C85.7175 13.12 85.4875 12.57 85.4875 11.87C85.4875 11.67 85.5125 11.435 85.5625 11.165L86.2075 7.91H84.9625L85.3225 6.11H86.5675L86.9575 4.145H89.2975L88.9075 6.11H90.9175L90.5575 7.91H88.5475L87.9025 11.15ZM100.71 5.93L95.3396 14.54C94.7596 15.48 94.1946 16.13 93.6446 16.49C93.1046 16.85 92.4396 17.03 91.6496 17.03C91.2296 17.03 90.8196 16.965 90.4196 16.835C90.0096 16.705 89.6896 16.535 89.4596 16.325L90.5396 14.645C90.8996 14.975 91.3296 15.14 91.8296 15.14C92.1296 15.14 92.3896 15.065 92.6096 14.915C92.8296 14.765 93.0546 14.51 93.2846 14.15L93.3596 14.015L91.4996 5.93H93.8396L95.0396 11.42L98.3996 5.93H100.71ZM105.671 14.18C104.621 14.18 103.701 13.99 102.911 13.61C102.131 13.23 101.531 12.695 101.111 12.005C100.691 11.315 100.481 10.52 100.481 9.62C100.481 8.43 100.751 7.36 101.291 6.41C101.841 5.45 102.611 4.695 103.601 4.145C104.591 3.595 105.726 3.32 107.006 3.32C107.946 3.32 108.776 3.48 109.496 3.8C110.216 4.12 110.761 4.58 111.131 5.18L109.376 6.62C108.816 5.8 107.971 5.39 106.841 5.39C106.071 5.39 105.391 5.57 104.801 5.93C104.211 6.29 103.751 6.78 103.421 7.4C103.101 8.02 102.941 8.71 102.941 9.47C102.941 10.28 103.196 10.925 103.706 11.405C104.226 11.875 104.951 12.11 105.881 12.11C106.991 12.11 107.921 11.705 108.671 10.895L110.111 12.365C109.071 13.575 107.591 14.18 105.671 14.18ZM114.632 6.89C114.982 6.51 115.402 6.235 115.892 6.065C116.392 5.895 116.977 5.81 117.647 5.81L117.227 7.97C116.947 7.95 116.767 7.94 116.687 7.94C115.977 7.94 115.407 8.115 114.977 8.465C114.557 8.815 114.272 9.36 114.122 10.1L113.342 14H111.002L112.607 5.93H114.827L114.632 6.89ZM126.09 9.365C126.09 9.735 126.045 10.145 125.955 10.595H119.775C119.855 11.695 120.55 12.245 121.86 12.245C122.27 12.245 122.66 12.18 123.03 12.05C123.41 11.92 123.74 11.735 124.02 11.495L124.995 13.04C124.545 13.4 124.03 13.67 123.45 13.85C122.87 14.03 122.26 14.12 121.62 14.12C120.79 14.12 120.06 13.975 119.43 13.685C118.81 13.385 118.33 12.96 117.99 12.41C117.66 11.86 117.495 11.225 117.495 10.505C117.495 9.615 117.695 8.815 118.095 8.105C118.505 7.385 119.07 6.825 119.79 6.425C120.51 6.015 121.33 5.81 122.25 5.81C123.03 5.81 123.705 5.955 124.275 6.245C124.855 6.535 125.3 6.95 125.61 7.49C125.93 8.03 126.09 8.655 126.09 9.365ZM122.145 7.565C121.595 7.565 121.13 7.715 120.75 8.015C120.37 8.305 120.1 8.71 119.94 9.23H123.945C123.945 8.71 123.78 8.305 123.45 8.015C123.13 7.715 122.695 7.565 122.145 7.565ZM129.689 14.12C128.989 14.12 128.324 14.045 127.694 13.895C127.074 13.735 126.589 13.53 126.239 13.28L127.139 11.585C127.489 11.815 127.914 12 128.414 12.14C128.924 12.28 129.434 12.35 129.944 12.35C130.474 12.35 130.869 12.285 131.129 12.155C131.389 12.015 131.519 11.82 131.519 11.57C131.519 11.37 131.404 11.225 131.174 11.135C130.944 11.045 130.574 10.95 130.064 10.85C129.484 10.74 129.004 10.62 128.624 10.49C128.254 10.36 127.929 10.15 127.649 9.86C127.379 9.56 127.244 9.155 127.244 8.645C127.244 7.755 127.614 7.06 128.354 6.56C129.104 6.06 130.084 5.81 131.294 5.81C131.854 5.81 132.399 5.87 132.929 5.99C133.459 6.11 133.909 6.275 134.279 6.485L133.439 8.195C132.779 7.785 131.984 7.58 131.054 7.58C130.544 7.58 130.154 7.655 129.884 7.805C129.624 7.955 129.494 8.145 129.494 8.375C129.494 8.585 129.609 8.74 129.839 8.84C130.069 8.93 130.454 9.03 130.994 9.14C131.564 9.25 132.029 9.37 132.389 9.5C132.759 9.62 133.079 9.825 133.349 10.115C133.619 10.405 133.754 10.8 133.754 11.3C133.754 12.2 133.374 12.895 132.614 13.385C131.864 13.875 130.889 14.12 129.689 14.12ZM137.898 11.15C137.878 11.23 137.868 11.34 137.868 11.48C137.868 12 138.153 12.26 138.723 12.26C139.033 12.26 139.348 12.165 139.668 11.975L140.013 13.64C139.493 13.96 138.823 14.12 138.003 14.12C137.243 14.12 136.633 13.92 136.173 13.52C135.713 13.12 135.483 12.57 135.483 11.87C135.483 11.67 135.508 11.435 135.558 11.165L136.203 7.91H134.958L135.318 6.11H136.563L136.953 4.145H139.293L138.903 6.11H140.913L140.553 7.91H138.543L137.898 11.15Z" fill="white"/>
</svg>
